<?xml version="1.0" encoding="UTF-8"?>
<svg width="26px" height="26px" viewBox="0 0 26 26" version="1.1" xmlns="http://www.w3.org/2000/svg" xmlns:xlink="http://www.w3.org/1999/xlink">
    <!-- Generator: Sketch 55.2 (78181) - https://sketchapp.com -->
    <title>plugin_3</title>
    <desc>Created with Sketch.</desc>
    <g id="Template" stroke="none" stroke-width="1" fill="none" fill-rule="evenodd">
        <g id="plugin_3" fill="#08C7FF" fill-rule="nonzero">
            <path d="M12.195,25.302 C11.038,25.302 10.045,24.475 9.833,23.336 L9.653,22.337 C9.466,22.269 9.282,22.195 9.097,22.115 L8.28,22.715 C7.359,23.395 6.007,23.297 5.191,22.499 L3.767,21.114 C3.309,20.673 3.051,20.074 3.042,19.43 C3.035,18.914 3.186,18.426 3.477,18.021 L4.044,17.203 C3.959,17.022 3.88,16.839 3.806,16.652 L2.802,16.495 C1.644,16.318 0.789,15.337 0.774,14.161 L0.749,12.168 C0.728,10.996 1.556,9.99 2.715,9.781 L3.712,9.601 C3.775,9.428 3.841,9.259 3.911,9.094 L3.299,8.261 C3.006,7.864 2.846,7.387 2.835,6.884 C2.828,6.232 3.072,5.627 3.523,5.172 L4.9,3.751 C5.696,2.929 7.042,2.799 7.983,3.453 L8.797,4.02 C8.978,3.934 9.16,3.854 9.344,3.78 L9.504,2.754 C9.688,1.593 10.671,0.741 11.843,0.726 L13.826,0.698 C13.827,0.698 13.827,0.698 13.827,0.698 C15.019,0.698 16.011,1.525 16.219,2.664 L16.396,3.638 C16.586,3.706 16.773,3.78 16.957,3.858 L17.793,3.245 C18.721,2.566 20.07,2.668 20.883,3.467 L22.307,4.852 C22.765,5.294 23.023,5.894 23.032,6.538 C23.039,7.042 22.891,7.525 22.605,7.935 L22.032,8.754 C22.116,8.933 22.195,9.113 22.269,9.298 L23.298,9.458 C24.46,9.641 25.312,10.625 25.323,11.799 L25.3521751,13.78 C25.366,14.954 24.539,15.958 23.389,16.171 L22.412,16.351 C22.338,16.557 22.257,16.762 22.168,16.966 L22.768,17.785 C23.058,18.168 23.221,18.647 23.232,19.159 C23.235,19.81 22.993,20.412 22.548,20.866 L21.164,22.29 C20.386,23.101 19.021,23.238 18.086,22.596 L17.252,22.015 C17.07,22.1 16.887,22.178 16.702,22.251 L16.548,23.252 C16.363,24.424 15.375,25.273 14.197,25.274 L12.226,25.302 C12.222,25.302 12.2,25.302 12.195,25.302 Z M8.985,19.957 C9.14,19.957 9.296,19.993 9.438,20.065 C9.888,20.294 10.35,20.478 10.811,20.613 C11.174,20.719 11.448,21.022 11.515,21.395 L11.8,22.975 C11.834,23.163 12.001,23.301 12.195,23.301 L12.195,24.301 L12.2,23.301 L14.181,23.273 C14.386,23.273 14.54,23.137 14.571,22.944 L14.815,21.358 C14.873,20.983 15.136,20.673 15.497,20.557 C15.961,20.408 16.419,20.211 16.859,19.973 C17.19,19.794 17.596,19.817 17.906,20.033 L19.223,20.95 C19.391,21.065 19.536,21.097 19.725,20.899 L21.116,19.468 C21.194,19.389 21.232,19.293 21.231,19.182 C21.229,19.108 21.208,19.036 21.163,18.978 L20.203,17.666 C19.98,17.361 19.947,16.958 20.118,16.622 C20.358,16.15 20.548,15.672 20.681,15.2 C20.785,14.834 21.087,14.559 21.461,14.49 L23.024,14.202 C23.218,14.166 23.352,14.003 23.3500221,13.805 L23.321,11.822 C23.319,11.625 23.178,11.463 22.986,11.433 L21.378,11.182 C21.009,11.124 20.703,10.866 20.584,10.512 C20.425,10.036 20.225,9.579 19.99,9.155 C19.805,8.821 19.827,8.411 20.046,8.098 L20.963,6.788 C21.007,6.725 21.03,6.645 21.029,6.561 C21.028,6.455 20.986,6.357 20.912,6.285 L19.483,4.895 C19.363,4.778 19.21,4.68 18.972,4.856 L17.659,5.819 C17.354,6.044 16.951,6.076 16.611,5.904 C16.187,5.686 15.725,5.506 15.241,5.366 C14.875,5.262 14.6,4.958 14.532,4.584 L14.249,3.021 C14.215,2.833 14.051,2.697 13.859,2.697 L11.87,2.727 C11.674,2.729 11.511,2.872 11.479,3.066 L11.228,4.673 C11.169,5.045 10.908,5.353 10.55,5.469 C10.093,5.618 9.64,5.818 9.204,6.06 C8.87,6.246 8.46,6.226 8.146,6.006 L6.839,5.096 C6.595,4.93 6.448,5.025 6.334,5.144 L4.949,6.573 C4.87,6.653 4.832,6.749 4.833,6.854 C4.835,6.933 4.859,7.011 4.907,7.076 L5.871,8.387 C6.095,8.692 6.128,9.095 5.957,9.432 C5.752,9.837 5.574,10.287 5.43,10.769 C5.322,11.129 5.02,11.398 4.65,11.465 L3.07,11.75 C2.881,11.784 2.745,11.947 2.74891403,12.138 L2.774,14.136 C2.776,14.328 2.917,14.49 3.108,14.519 L4.701,14.768 C5.072,14.827 5.379,15.088 5.496,15.445 C5.652,15.921 5.85,16.378 6.083,16.805 C6.264,17.137 6.242,17.543 6.027,17.854 L5.112,19.174 C5.051,19.258 5.042,19.345 5.043,19.404 C5.044,19.512 5.083,19.604 5.159,19.677 L6.588,21.067 C6.705,21.182 6.856,21.278 7.097,21.103 L8.394,20.151 C8.568,20.022 8.776,19.957 8.985,19.957 Z" id="Shape"></path>
            <path d="M13.056,18.646 C9.986,18.646 7.452,16.148 7.409,13.078 C7.388,11.571 7.956,10.146 9.008,9.066 C10.06,7.985 11.468,7.378 12.974,7.358 C12.975,7.358 12.975,7.358 12.975,7.358 C16.122,7.358 18.654,9.855 18.699,12.923 C18.72,14.431 18.152,15.856 17.099,16.938 C16.046,18.019 14.636,18.626 13.128,18.646 C13.122,18.646 13.06,18.646 13.056,18.646 Z M13.051,9.358 C12.029,9.371 11.119,9.762 10.441,10.461 C9.762,11.158 9.395,12.078 9.409,13.051 C9.437,15.033 11.073,16.647 13.056,16.647 L13.056,17.647 L13.102,16.647 C14.074,16.634 14.985,16.242 15.665,15.543 C16.345,14.844 16.712,13.925 16.698,12.952 C16.669,10.971 15.033,9.358 13.051,9.358 Z" id="Shape"></path>
        </g>
    </g>
</svg>