<?xml version="1.0" encoding="utf-8"?>
<!-- Generator: Adobe Illustrator 16.0.3, SVG Export Plug-In . SVG Version: 6.00 Build 0)  -->
<!DOCTYPE svg PUBLIC "-//W3C//DTD SVG 1.1//EN" "http://www.w3.org/Graphics/SVG/1.1/DTD/svg11.dtd">
<svg version="1.1" id="Layer_1" xmlns="http://www.w3.org/2000/svg" xmlns:xlink="http://www.w3.org/1999/xlink" x="0px" y="0px"
	 width="11.046px" height="6.273px" viewBox="0 0 11.046 6.273" enable-background="new 0 0 11.046 6.273" xml:space="preserve">
<g>
	<g>
		<path fill="#989898" d="M5.523,6.273c-0.192,0-0.384-0.073-0.53-0.22C4.7,5.761,4.7,5.286,4.993,4.993L9.766,0.22
			c0.293-0.293,0.768-0.293,1.061,0s0.293,0.768,0,1.061L6.053,6.054C5.907,6.2,5.715,6.273,5.523,6.273z"/>
	</g>
	<g>
		<path fill="#989898" d="M5.523,6.273c-0.192,0-0.384-0.073-0.53-0.22L0.22,1.28c-0.293-0.293-0.293-0.768,0-1.061
			s0.768-0.293,1.061,0l4.773,4.773c0.293,0.293,0.293,0.768,0,1.061C5.907,6.2,5.715,6.273,5.523,6.273z"/>
	</g>
</g>
</svg>
