<?xml version="1.0" encoding="utf-8"?>
<!-- Generator: Adobe Illustrator 16.0.3, SVG Export Plug-In . SVG Version: 6.00 Build 0)  -->
<!DOCTYPE svg PUBLIC "-//W3C//DTD SVG 1.1//EN" "http://www.w3.org/Graphics/SVG/1.1/DTD/svg11.dtd">
<svg version="1.1" id="Layer_1" xmlns="http://www.w3.org/2000/svg" xmlns:xlink="http://www.w3.org/1999/xlink" x="0px" y="0px"
	 width="40.1px" height="40px" viewBox="0 0 40.1 40" enable-background="new 0 0 40.1 40" xml:space="preserve">
<g>
	<g>
		<rect fill="#08C7FF" width="40.1" height="40"/>
	</g>
	<g>
		<path fill="#FFFFFF" d="M19.195,32.302c-1.157,0-2.15-0.827-2.362-1.966l-0.18-0.999c-0.187-0.068-0.371-0.142-0.556-0.222
			l-0.817,0.6c-0.921,0.68-2.273,0.582-3.089-0.216l-1.424-1.385c-0.458-0.441-0.716-1.04-0.725-1.684
			c-0.007-0.516,0.144-1.004,0.435-1.409l0.567-0.818c-0.085-0.181-0.164-0.364-0.238-0.551l-1.004-0.157
			c-1.158-0.177-2.013-1.158-2.028-2.334l-0.025-1.993c-0.021-1.172,0.807-2.178,1.966-2.387l0.997-0.18
			c0.063-0.173,0.129-0.342,0.199-0.507l-0.612-0.833c-0.293-0.397-0.453-0.874-0.464-1.377c-0.007-0.652,0.237-1.257,0.688-1.712
			l1.377-1.421c0.796-0.822,2.142-0.952,3.083-0.298l0.814,0.567c0.181-0.086,0.363-0.166,0.547-0.24l0.16-1.026
			c0.184-1.161,1.167-2.013,2.339-2.028l1.983-0.028c0.001,0,0.001,0,0.001,0c1.192,0,2.184,0.827,2.392,1.966l0.177,0.974
			c0.19,0.068,0.377,0.142,0.561,0.22l0.836-0.613c0.928-0.679,2.277-0.577,3.09,0.222l1.424,1.385
			c0.458,0.442,0.716,1.042,0.725,1.686c0.007,0.504-0.141,0.987-0.427,1.397l-0.573,0.819c0.084,0.179,0.163,0.359,0.237,0.544
			l1.029,0.16c1.162,0.183,2.014,1.167,2.025,2.341l0.029,1.981c0.014,1.174-0.813,2.178-1.963,2.391l-0.977,0.18
			c-0.074,0.206-0.155,0.411-0.244,0.615l0.6,0.819c0.29,0.383,0.453,0.862,0.464,1.374c0.003,0.651-0.239,1.253-0.684,1.707
			l-1.384,1.424c-0.778,0.811-2.143,0.948-3.078,0.306l-0.834-0.581c-0.182,0.085-0.365,0.163-0.55,0.236l-0.154,1.001
			c-0.185,1.172-1.173,2.021-2.351,2.022l-1.971,0.028C19.222,32.302,19.2,32.302,19.195,32.302z M15.985,26.957
			c0.155,0,0.311,0.036,0.453,0.108c0.45,0.229,0.912,0.413,1.373,0.548c0.363,0.106,0.637,0.409,0.704,0.782l0.285,1.58
			c0.034,0.188,0.201,0.326,0.395,0.326v1l0.005-1l1.981-0.028c0.205,0,0.359-0.136,0.39-0.329l0.244-1.586
			c0.058-0.375,0.321-0.685,0.682-0.801c0.464-0.149,0.922-0.346,1.362-0.584c0.331-0.179,0.737-0.156,1.047,0.06l1.317,0.917
			c0.168,0.115,0.313,0.147,0.502-0.051l1.391-1.431c0.078-0.079,0.116-0.175,0.115-0.286c-0.002-0.074-0.023-0.146-0.068-0.204
			l-0.96-1.312c-0.223-0.305-0.256-0.708-0.085-1.044c0.24-0.472,0.43-0.95,0.563-1.422c0.104-0.366,0.406-0.641,0.78-0.71
			l1.563-0.288c0.194-0.036,0.328-0.199,0.326-0.397l-0.029-1.983c-0.002-0.197-0.143-0.359-0.335-0.389l-1.608-0.251
			c-0.369-0.058-0.675-0.316-0.794-0.67c-0.159-0.476-0.359-0.933-0.594-1.357c-0.185-0.334-0.163-0.744,0.056-1.057l0.917-1.31
			c0.044-0.063,0.067-0.143,0.066-0.227c-0.001-0.106-0.043-0.204-0.117-0.276l-1.429-1.39c-0.12-0.117-0.273-0.215-0.511-0.039
			l-1.313,0.963c-0.305,0.225-0.708,0.257-1.048,0.085c-0.424-0.218-0.886-0.398-1.37-0.538c-0.366-0.104-0.641-0.408-0.709-0.782
			l-0.283-1.563c-0.034-0.188-0.198-0.324-0.39-0.324L18.87,9.727c-0.196,0.002-0.359,0.145-0.391,0.339l-0.251,1.607
			c-0.059,0.372-0.32,0.68-0.678,0.796c-0.457,0.149-0.91,0.349-1.346,0.591c-0.334,0.186-0.744,0.166-1.058-0.054l-1.307-0.91
			c-0.244-0.166-0.391-0.071-0.505,0.048l-1.385,1.429c-0.079,0.08-0.117,0.176-0.116,0.281c0.002,0.079,0.026,0.157,0.074,0.222
			l0.964,1.311c0.224,0.305,0.257,0.708,0.086,1.045c-0.205,0.405-0.383,0.855-0.527,1.337c-0.108,0.36-0.41,0.629-0.78,0.696
			L10.07,18.75c-0.189,0.034-0.325,0.197-0.321,0.388l0.025,1.998c0.002,0.192,0.143,0.354,0.334,0.383l1.593,0.249
			c0.371,0.059,0.678,0.32,0.795,0.677c0.156,0.476,0.354,0.933,0.587,1.36c0.181,0.332,0.159,0.738-0.056,1.049l-0.915,1.32
			c-0.061,0.084-0.07,0.171-0.069,0.23c0.001,0.108,0.04,0.2,0.116,0.273l1.429,1.39c0.117,0.115,0.268,0.211,0.509,0.036
			l1.297-0.952C15.568,27.022,15.776,26.957,15.985,26.957z"/>
	</g>
	<g>
		<path fill="#FFFFFF" d="M20.056,25.646c-3.07,0-5.604-2.498-5.647-5.568c-0.021-1.507,0.547-2.932,1.599-4.012
			c1.052-1.081,2.46-1.688,3.966-1.708c0.001,0,0.001,0,0.001,0c3.147,0,5.679,2.497,5.724,5.565c0.021,1.508-0.547,2.933-1.6,4.015
			c-1.053,1.081-2.463,1.688-3.971,1.708C20.122,25.646,20.06,25.646,20.056,25.646z M20.051,16.358
			c-1.022,0.013-1.932,0.404-2.61,1.103c-0.679,0.697-1.046,1.617-1.032,2.59c0.028,1.982,1.664,3.596,3.647,3.596v1l0.046-1
			c0.972-0.013,1.883-0.405,2.563-1.104s1.047-1.618,1.033-2.591C23.669,17.971,22.033,16.358,20.051,16.358z"/>
	</g>
</g>
</svg>
