<svg xmlns="http://www.w3.org/2000/svg" viewBox="0 0 19.3 19.3"><defs><style>.cls-1{fill:#50c8ff;stroke:#50c8ff;stroke-linecap:round;stroke-linejoin:round;stroke-width:2px;}.cls-2{fill:#ffffff;}</style></defs><title>Asset 1</title><g id="Layer_2" data-name="Layer 2"><g id="Isolation_Mode" data-name="Isolation Mode"><circle class="cls-1" cx="9.65" cy="9.65" r="8.65"/><path class="cls-2" d="M8.74,11.69l0-.36a3.21,3.21,0,0,1,.87-2.42,3.08,3.08,0,0,0,1-1.92c0-.71-.45-1.19-1.33-1.2a2.49,2.49,0,0,0-1.41.43l-.34-.88a3.67,3.67,0,0,1,2-.56,2.07,2.07,0,0,1,2.34,2.06,3.79,3.79,0,0,1-1.2,2.44,2.77,2.77,0,0,0-.8,2.06v.36Zm-.31,2a.83.83,0,0,1,.84-.88.88.88,0,1,1-.84.88Z"/></g></g></svg>