<?xml version="1.0" encoding="utf-8"?>
<!-- Generator: Adobe Illustrator 16.0.3, SVG Export Plug-In . SVG Version: 6.00 Build 0)  -->
<!DOCTYPE svg PUBLIC "-//W3C//DTD SVG 1.1//EN" "http://www.w3.org/Graphics/SVG/1.1/DTD/svg11.dtd">
<svg version="1.1" id="Layer_1" xmlns="http://www.w3.org/2000/svg" xmlns:xlink="http://www.w3.org/1999/xlink" x="0px" y="0px"
	 width="60.002px" height="38.604px" viewBox="0 0 60.002 38.604" enable-background="new 0 0 60.002 38.604" xml:space="preserve">
<g>
	<g>
		<path fill="#494949" d="M12.57,38.604H1c-0.552,0-1-0.447-1-1s0.448-1,1-1h11.156l1.047-1.048
			c-6.32-2.506-10.801-8.68-10.801-15.881c0-9.416,7.66-17.076,17.076-17.076c0.552,0,1,0.448,1,1v15.076h15.076
			c0.553,0,1,0.448,1,1c0,9.415-7.66,17.075-17.076,17.075c-1.425,0-2.81-0.177-4.134-0.506l-2.067,2.065
			C13.089,38.498,12.835,38.604,12.57,38.604z M17.036,34.553c0.795,0.13,1.611,0.197,2.442,0.197
			c7.977,0,14.527-6.228,15.042-14.075H19.478c-0.552,0-1-0.448-1-1V4.631C10.629,5.148,4.402,11.698,4.402,19.675
			c0,6.667,4.351,12.337,10.362,14.32l4.528-4.527c0.391-0.391,1.023-0.391,1.414,0s0.391,1.023,0,1.414L17.036,34.553z
			 M38.64,18.076H22.563c-0.552,0-1-0.448-1-1V1c0-0.553,0.448-1,1-1c4.184,0,8.021,1.512,10.993,4.019l0.764-0.762
			c0.188-0.188,0.44-0.293,0.707-0.293h11.57c0.553,0,1,0.448,1,1s-0.447,1-1,1H35.438l-0.432,0.432
			c2.87,3.057,4.631,7.167,4.631,11.682C39.64,17.628,39.19,18.076,38.64,18.076z M23.563,16.076h14.042
			c-0.233-3.568-1.715-6.802-4.012-9.267l-5.29,5.29c-0.391,0.392-1.023,0.392-1.414,0c-0.391-0.391-0.391-1.022,0-1.414
			l5.247-5.247c-2.365-1.949-5.331-3.191-8.574-3.405L23.563,16.076L23.563,16.076z"/>
	</g>
	<g>
		<path fill="#494949" d="M43.255,33.75h-3.658c-0.554,0-1-0.447-1-1c0-0.554,0.446-1,1-1h3.658c0.553,0,1,0.446,1,1
			C44.255,33.303,43.808,33.75,43.255,33.75z"/>
	</g>
	<g>
		<path fill="#494949" d="M59.002,33.75H46.033c-0.554,0-1-0.447-1-1c0-0.554,0.446-1,1-1h12.969c0.554,0,1,0.446,1,1
			C60.002,33.303,59.556,33.75,59.002,33.75z"/>
	</g>
	<g>
		<path fill="#494949" d="M48.778,37.425h-9.184c-0.553,0-1-0.447-1-1s0.447-1,1-1h9.184c0.554,0,1,0.447,1,1
			S49.332,37.425,48.778,37.425z"/>
	</g>
	<g>
		<path fill="#494949" d="M52.563,29.75H39.597c-0.554,0-1-0.447-1-1c0-0.554,0.446-1,1-1h12.967c0.553,0,1,0.446,1,1
			C53.563,29.303,53.115,29.75,52.563,29.75z"/>
	</g>
</g>
</svg>
