<?xml version="1.0" encoding="utf-8"?>
<!-- Generator: Adobe Illustrator 16.0.3, SVG Export Plug-In . SVG Version: 6.00 Build 0)  -->
<!DOCTYPE svg PUBLIC "-//W3C//DTD SVG 1.1//EN" "http://www.w3.org/Graphics/SVG/1.1/DTD/svg11.dtd">
<svg version="1.1" id="Layer_1" xmlns="http://www.w3.org/2000/svg" xmlns:xlink="http://www.w3.org/1999/xlink" x="0px" y="0px"
	 width="17px" height="17px" viewBox="0 0 17 17" enable-background="new 0 0 17 17" xml:space="preserve">
<g>
	<g>
		<rect x="0.5" y="0.5" fill="#4FC6FF" width="15.999" height="16"/>
	</g>
	<g>
		<path fill="#4FC6FF" d="M17,17H0V0h17V17z M1,16h15V1H1V16z"/>
	</g>
	<g>
		<path fill="#FFFFFF" d="M7.228,12.302c-0.256,0-0.512-0.098-0.707-0.293L3.456,8.944c-0.391-0.39-0.391-1.023,0-1.414
			s1.023-0.391,1.414,0l3.065,3.064c0.391,0.39,0.391,1.023,0,1.414C7.74,12.204,7.484,12.302,7.228,12.302z"/>
	</g>
	<g>
		<path fill="#FFFFFF" d="M7.23,12.302c-0.256,0-0.512-0.098-0.707-0.293c-0.391-0.39-0.391-1.023,0-1.414l5.607-5.608
			c0.391-0.391,1.023-0.391,1.414,0c0.391,0.39,0.391,1.023,0,1.414l-5.607,5.608C7.742,12.204,7.486,12.302,7.23,12.302z"/>
	</g>
</g>
</svg>
